<svg width="132" height="32" viewBox="0 0 132 32" fill="none" xmlns="http://www.w3.org/2000/svg">
<path d="M38.9355 18.7774H42.1101C42.2364 20.2987 43.5051 21.5731 46.0482 21.5731C48.0804 21.5731 49.4754 20.557 49.4754 19.1621C49.4754 17.7671 48.1551 17.4341 46.0482 17.0036L44.7796 16.751C42.2422 16.2458 39.1939 15.6086 39.1939 12.1814C39.1939 8.75422 41.7313 6.97461 45.7957 6.97461C49.6075 6.97461 52.2711 8.88051 52.3974 12.1814H49.2228C49.0965 10.6601 47.8279 9.64402 45.5431 9.64402C43.7635 9.64402 42.3685 10.4075 42.3685 11.8025C42.3685 13.1975 43.8668 13.5821 45.7957 13.961L47.0643 14.2136C49.6017 14.7188 52.65 15.356 52.65 18.7832C52.65 22.2104 50.1126 24.2426 45.7957 24.2426C41.7313 24.2426 39.0676 22.2104 38.9413 18.7832L38.9355 18.7774Z" fill="#141414"/>
<path d="M55.4974 20.6841V13.7034H53.3389V11.4186H53.5915C55.3711 11.4186 55.8762 10.7814 55.8762 9.51273V7.99146H58.5399V11.2923H61.3356V13.7034H58.5399V20.3052C58.5399 21.5739 59.1771 21.8265 60.1932 21.8265H61.3356V23.985C60.6238 24.0596 59.734 24.1113 59.1771 24.1113C56.8923 24.1113 55.4974 23.2215 55.4974 20.6841Z" fill="#141414"/>
<path d="M62.498 20.4309C62.498 18.1461 64.1514 16.975 66.5624 16.6191L69.0998 16.2402C69.8633 16.1139 70.6211 15.8614 70.6211 14.9715C70.6211 13.8292 69.4787 13.3182 68.4626 13.3182C66.9413 13.3182 65.9252 14.0817 65.7989 15.603H62.7506C62.7506 12.8073 65.1617 11.0334 68.4626 11.0334C71.7635 11.0334 73.7957 12.8131 73.7957 15.8556V23.9844H70.8737V22.4631C69.9839 23.7318 68.5889 24.2427 67.0676 24.2427C64.5302 24.2427 62.498 22.7215 62.498 20.4309ZM70.7531 19.1622V18.0198L68.3421 18.3987C66.8208 18.6284 65.6726 19.0359 65.6726 20.3046C65.6726 21.447 66.6887 21.958 67.7048 21.958C69.2261 21.958 70.7531 20.9419 70.7531 19.1622Z" fill="#141414"/>
<path d="M75.9033 23.9844V11.286H78.8253V13.0656C79.3305 12.0495 80.2203 11.0334 81.9999 11.0334C82.3558 11.0334 82.861 11.0851 83.2686 11.1597V13.8292C82.8381 13.7545 82.3271 13.7029 81.9999 13.7029C79.7151 13.7029 78.9516 15.2241 78.9516 17.5147V23.9901H75.9033V23.9844Z" fill="#141414"/>
<path d="M83.9939 24.6215H87.0422C87.1685 25.6893 88.1846 26.4011 90.0388 26.4011C91.7381 26.4011 93.1388 25.385 93.1388 23.3528V21.8315C92.7599 22.595 91.5372 23.6111 89.5853 23.6111C86.0319 23.6111 83.7471 21.0738 83.7471 17.3882C83.7471 13.9611 86.0319 11.0391 89.5853 11.0391C91.5429 11.0391 92.8346 12.0552 93.2651 12.8187V11.2974H96.1871V23.3586C96.1871 26.912 93.776 28.8179 89.7863 28.8179C86.4107 28.8179 84.126 27.2163 83.9939 24.6272V24.6215ZM93.1331 17.3825C93.1331 15.4766 92.2433 13.5707 89.9585 13.5707C87.9263 13.5707 86.7839 15.4766 86.7839 17.3825C86.7839 19.7936 87.9263 21.1943 89.9585 21.1943C92.2433 21.1943 93.1331 19.2884 93.1331 17.3825Z" fill="#141414"/>
<path d="M98.0518 20.4309C98.0518 18.1461 99.7051 16.975 102.116 16.6191L104.654 16.2402C105.417 16.1139 106.175 15.8614 106.175 14.9715C106.175 13.8292 105.032 13.3182 104.016 13.3182C102.495 13.3182 101.479 14.0817 101.353 15.603H98.3043C98.3043 12.8073 100.715 11.0334 104.016 11.0334C107.317 11.0334 109.349 12.8131 109.349 15.8556V23.9844H106.427V22.4631C105.538 23.7318 104.143 24.2427 102.621 24.2427C100.084 24.2427 98.0518 22.7215 98.0518 20.4309ZM106.307 19.1622V18.0198L103.896 18.3987C102.374 18.6284 101.226 19.0359 101.226 20.3046C101.226 21.447 102.242 21.958 103.259 21.958C104.78 21.958 106.307 20.9419 106.307 19.1622Z" fill="#141414"/>
<path d="M112.386 20.6841V13.7034H110.228V11.4186H110.48C112.26 11.4186 112.765 10.7814 112.765 9.51273V7.99146H115.429V11.2923H118.224V13.7034H115.429V20.3052C115.429 21.5739 116.066 21.8265 117.082 21.8265H118.224V23.985C117.512 24.0596 116.623 24.1113 116.066 24.1113C113.781 24.1113 112.386 23.2215 112.386 20.6841Z" fill="#141414"/>
<path d="M131.01 18.6512H121.739C122.072 20.8097 123.467 21.8258 125.166 21.8258C126.687 21.8258 127.703 20.9647 128.214 19.9486L130.752 20.9417C129.735 22.9739 127.956 24.2426 125.166 24.2426C121.228 24.2426 118.69 21.7052 118.69 17.6408C118.69 13.829 121.228 11.0391 124.913 11.0391C128.851 11.0391 131.01 13.8348 131.01 18.1518V18.6569V18.6512ZM127.962 16.4927C127.962 14.5868 126.567 13.4444 124.913 13.4444C123.26 13.4444 122.072 14.4375 121.739 16.4927H127.962Z" fill="#141414"/>
<path d="M19.2764 1.73425L20.1031 3.66885C21.7219 7.46344 24.7415 10.483 28.5361 12.1019L30.4707 12.9286C30.9759 13.1467 31.3892 13.451 31.705 13.8241C30.7348 6.91807 25.2812 1.45869 18.3809 0.5C18.7483 0.815737 19.0583 1.22907 19.2764 1.73425Z" fill="#999999"/>
<path d="M1.93444 12.9286L3.86905 12.1019C7.66363 10.483 10.6832 7.46344 12.3078 3.66885L13.1345 1.73425C13.3526 1.22907 13.6626 0.815737 14.03 0.5C7.11827 1.45869 1.66463 6.91808 0.700195 13.8184C1.01593 13.451 1.42926 13.141 1.93444 12.9228V12.9286Z" fill="#999999"/>
<path d="M30.4668 19.0714L28.5322 19.8981C24.7376 21.517 21.718 24.5423 20.0992 28.3369L19.2725 30.2658C19.0544 30.7709 18.7444 31.1843 18.377 31.5C25.2772 30.5356 30.7309 25.0819 31.6953 18.1816C31.3796 18.549 30.9663 18.859 30.4611 19.0772L30.4668 19.0714Z" fill="#999999"/>
<path d="M13.1286 30.2649L12.302 28.336C10.6831 24.5415 7.65778 21.5219 3.86319 19.8973L1.92858 19.0706C1.4234 18.8524 1.01007 18.5482 0.694336 18.175C1.65877 25.0753 7.11241 30.5347 14.0127 31.4934C13.6453 31.1777 13.3353 30.7643 13.1172 30.2592L13.1286 30.2649Z" fill="#999999"/>
<path d="M9.17075 14.4842L10.1237 14.0766C11.9952 13.2786 13.482 11.7918 14.28 9.92034L14.6875 8.96738C15.2559 7.63555 17.1503 7.63555 17.7186 8.96738L18.1262 9.92034C18.9242 11.7918 20.411 13.2786 22.2825 14.0766L23.2354 14.4842C24.5672 15.0525 24.5672 16.9412 23.2354 17.5152L22.2825 17.9228C20.411 18.7208 18.9242 20.2076 18.1262 22.0791L17.7186 23.032C17.1503 24.3639 15.2559 24.3639 14.6875 23.032L14.28 22.0791C13.482 20.2076 11.9952 18.7208 10.1237 17.9228L9.17075 17.5152C7.83892 16.9469 7.83892 15.0582 9.17075 14.4842Z" fill="#141414"/>
</svg>
